<?xml version="1.0" standalone="no"?>
<!DOCTYPE svg PUBLIC "-//W3C//DTD SVG 20010904//EN"
 "http://www.w3.org/TR/2001/REC-SVG-20010904/DTD/svg10.dtd">
<svg version="1.0" xmlns="http://www.w3.org/2000/svg"
 width="602.000000pt" height="602.000000pt" viewBox="0 0 602.000000 602.000000"
 preserveAspectRatio="xMidYMid meet">
<metadata>
Created by potrace 1.14, written by Peter Selinger 2001-2017
</metadata>
<g transform="translate(0.000000,602.000000) scale(0.100000,-0.100000)"
fill="#000000" stroke="none">
<path d="M0 3010 l0 -1550 3010 0 3010 0 0 1550 0 1550 -3010 0 -3010 0 0
-1550z m2000 745 c83 -15 227 -64 278 -95 23 -14 32 -26 28 -38 -2 -9 -7 -87
-11 -172 -3 -85 -8 -172 -11 -193 l-6 -38 -50 3 -50 3 -78 135 c-88 154 -144
223 -196 240 -55 19 -200 8 -249 -17 -119 -62 -147 -183 -63 -270 45 -47 188
-114 337 -158 205 -60 324 -127 402 -228 107 -138 136 -334 75 -503 -30 -81
-64 -131 -136 -197 -107 -100 -261 -158 -465 -177 -201 -19 -391 13 -585 99
l-85 37 -3 233 -2 232 57 -3 57 -3 73 -129 c113 -200 172 -265 265 -295 52
-17 194 -15 247 4 109 38 154 92 155 184 1 125 -60 174 -327 262 -229 77 -303
115 -388 199 -102 100 -149 211 -149 350 0 142 43 249 141 355 158 168 430
235 739 180z"/>
</g>
</svg>
